<svg width="120" height="154" viewBox="0 0 120 154" fill="none" xmlns="http://www.w3.org/2000/svg">
<path d="M90.9702 0.0341985C98.8394 0.0853596 106.026 3.95656 111.096 9.31142C116.165 14.6663 119.733 22.1017 119.835 30.3898C120.368 36.2107 119.604 42.0772 117.597 47.5677C115.59 53.0582 112.39 58.0362 108.228 62.1438C100.495 69.9885 89.9119 75.1047 79.0897 78.5154C59.2888 84.7741 36.2446 86.002 20.9159 85.4733C17.1776 97.2063 16.4436 106.108 17.519 112.845C18.3638 119.063 21.5279 124.734 26.3782 128.722C30.9529 133.411 36.6372 134.827 45.155 136.566C67.926 139.346 90.2192 126.181 104.063 107.302C105.422 105.541 107.416 104.38 109.62 104.067C111.823 103.753 114.062 104.313 115.859 105.625C117.656 106.938 118.869 108.899 119.238 111.092C119.608 113.285 119.105 115.536 117.838 117.364C101.502 139.653 73.5591 157.389 42.6969 153.449L42.0653 153.347L41.3996 153.211C33.4622 151.591 22.9131 149.442 14.3953 140.881C6.96938 134.317 2.10776 125.34 0.671156 115.539C-1.00168 105.136 0.46632 93.1645 4.92153 79.4704L5.04102 79.1293L7.22595 73.2628L7.56734 72.4784L7.66976 72.2226C12.4926 58.6038 19.303 45.7716 27.8804 34.1416C40.7851 16.9515 61.4225 -0.886702 90.9702 0.0341985ZM27.4707 68.539C41.1265 68.5219 58.8961 67.0041 73.9517 62.2632C83.4083 59.2788 91.0727 55.2371 96.0741 50.1551C100.82 45.38 103.431 39.4624 102.8 31.413L102.765 30.7309C102.688 27.1047 101.236 23.6429 98.7028 21.0444C96.1253 18.3158 93.121 17.0879 90.8166 17.0879H90.5264C68.9502 16.3717 52.9217 29.1961 41.5362 44.3739C35.984 51.8921 31.2731 59.9955 27.4878 68.539" fill="#343E3D"/>
</svg>
